<?xml version="1.0" standalone="no"?><!DOCTYPE svg PUBLIC "-//W3C//DTD SVG 1.1//EN" "http://www.w3.org/Graphics/SVG/1.1/DTD/svg11.dtd"><svg t="1740552571666" class="icon" viewBox="0 0 1024 1024" version="1.1" xmlns="http://www.w3.org/2000/svg" p-id="7228" xmlns:xlink="http://www.w3.org/1999/xlink" width="200" height="200"><path d="M959.0224 215.68a72 72 0 0 0-56.832-63.232 1342.272 1342.272 0 0 1-183.808-42.24 682.624 682.624 0 0 1-164.288-96 75.136 75.136 0 0 0-87.744 0A430.784 430.784 0 0 1 300.7824 109.504a616.768 616.768 0 0 1-178.752 44.16c-31.36 5.056-54.848 31.424-56.192 63.168C64.4944 248.64 63.9824 375.424 63.9824 515.008c0 252.608 298.112 497.088 447.232 497.088 148.992 0 401.728-172.416 442.112-493.312 10.112-189.44 5.696-303.168 5.696-303.168z" p-id="7229" ></path><path d="M709.1664 448.384l-210.56 198.592a28.608 28.608 0 0 1-35.008 3.456l-5.568-4.736L341.8704 524.8a28.992 28.992 0 1 1 42.688-39.296l95.68 100.352 189.632-179.392a29.056 29.056 0 0 1 39.296 42.688v-0.832z"></path></svg>
